# xmcd
#
# Track frame offsets:
#	150
#	21486
#	39594
#	52476
#	66730
#	82330
#	102600
#	123836
#	140487
#	161151
#	179220
#	197092
#	222325
#	240198
#	265206
#	289091
#	311956
#
# Disc length: 4420 seconds
#
# Revision: 2
# Processed by: cddbd v1.5.1PL0 Copyright (c) Steve Scherf et al.
# Submitted via: audiograbber 1.83.01
#
DISCID=1f114211
DTITLE=Various Artist - BLACK VELVET 1
DYEAR=2005
DGENRE=
TTITLE0=Alannah Myles - Black Velvet
TTITLE1=Wilson Picket - Hey Jude
TTITLE2=Dionne Warnig - Walk On By
TTITLE3=Otis Redding - I've Been Loving You Too Long
TTITLE4=Timmy Thomas - Why Can't We Live Together
TTITLE5=DraMatics - In The Rain
TTITLE6=Roberta Flack - KillinG Me Softly With his Song
TTITLE7=Gladys Knight and The Pips - Best Thing That Ever Happened To Me
TTITLE8=Manhattans - It Feels So Good To Be Loved So Bad
TTITLE9=Ray Parker JR - A Woman Needs Love
TTITLE10=Gil Scott Heron - GUN
TTITLE11=Isley Brothers - For The Love Of You (Parts 1&2)
TTITLE12=Gregory Abbott - Shake You Down
TTITLE13=ReginA Belle - Baby Come To Me
TTITLE14=George Benson - Shiver
TTITLE15=Randy Crawford - Give Me The Night
TTITLE16=Anita Baker - Sweet Love
EXTD=
EXTT0=
EXTT1=
EXTT2=
EXTT3=
EXTT4=
EXTT5=
EXTT6=
EXTT7=
EXTT8=
EXTT9=
EXTT10=
EXTT11=
EXTT12=
EXTT13=
EXTT14=
EXTT15=
EXTT16=
PLAYORDER=
